<?xml version="1.0" ?><svg xmlns="http://www.w3.org/2000/svg" xmlns:xlink="http://www.w3.org/1999/xlink" version="1.1" id="Layer_1" viewBox="0 0 24 24" enable-background="new 0 0 24 24" xml:space="preserve"><g><path d="M20.62,17.91c-0.1-0.09-0.23-0.18-0.41-0.27c-0.3-0.14-0.73-0.28-1.27-0.4L19,12.62c0-0.25-0.13-0.48-0.35-0.61l-2.01-1.13   c0.07-0.21,0.11-0.44,0.11-0.67c0-0.55-0.21-1.07-0.6-1.46C15.83,8.44,15.43,8.24,15,8.17c0.14-0.17,0.32-0.32,0.52-0.4   c0.09-0.04,0.13-0.14,0.09-0.23c-0.04-0.09-0.14-0.13-0.23-0.09c-0.32,0.14-0.6,0.39-0.78,0.69c-0.52,0.02-1.01,0.23-1.39,0.6   c-0.39,0.39-0.6,0.91-0.6,1.46c0,0.06,0,0.12,0.01,0.19l-1.05,0.33c-0.08-0.47-0.31-0.95-0.66-1.35c-0.34-0.4-0.76-0.7-1.21-0.86   C9.3,8.37,8.89,8.34,8.54,8.44L5.63,4.51C5.47,4.28,5.22,4.13,4.94,4.11C4.69,4.09,4.45,4.17,4.26,4.33   C4.06,4.5,3.94,4.75,3.93,5.01c-0.01,0.26,0.09,0.52,0.28,0.7l3.25,3.13c0.07,0.07,0.18,0.06,0.24,0c0.07-0.07,0.06-0.18,0-0.24   L4.45,5.47C4.33,5.35,4.27,5.19,4.27,5.02C4.28,4.85,4.35,4.7,4.48,4.59c0.12-0.1,0.28-0.15,0.43-0.14   C5.09,4.47,5.25,4.56,5.35,4.7c0,0,0,0,0,0l2.98,4.04c0.05,0.06,0.13,0.09,0.2,0.06c0.3-0.11,0.67-0.1,1.05,0.03   c0.4,0.14,0.77,0.4,1.07,0.76c0.35,0.41,0.56,0.9,0.61,1.37c0.04,0.48-0.1,0.88-0.4,1.13c-0.26,0.22-0.62,0.31-1.02,0.24   c-0.41-0.06-0.83-0.28-1.18-0.61c-0.08-0.07-0.16-0.16-0.23-0.24c-0.3-0.36-0.5-0.76-0.58-1.18C7.78,9.93,7.82,9.57,7.98,9.29   l0.18-0.17c0.07-0.06,0.07-0.17,0.01-0.24C8.1,8.81,7.99,8.8,7.93,8.87l-0.2,0.19C7.71,9.07,7.7,9.08,7.69,9.1   c-0.2,0.35-0.26,0.8-0.18,1.27c0.09,0.47,0.31,0.94,0.66,1.34c0.02,0.02,0.04,0.04,0.06,0.06l-1.89,0.59   c-0.09,0.03-0.14,0.12-0.11,0.21c0.02,0.07,0.09,0.12,0.16,0.12c0.02,0,0.03,0,0.05-0.01l2.06-0.65c0.39,0.34,0.84,0.56,1.29,0.63   c0.1,0.02,0.2,0.02,0.3,0.02c0.38,0,0.72-0.12,0.99-0.35c0.19-0.17,0.34-0.38,0.43-0.63c0.07-0.2,0.1-0.42,0.1-0.65l1.08-0.34   c0.09,0.35,0.27,0.67,0.54,0.93c0.39,0.39,0.91,0.6,1.46,0.6c0.55,0,1.07-0.21,1.46-0.6c0.14-0.14,0.26-0.3,0.36-0.48l1.98,1.11   c0.11,0.06,0.18,0.18,0.18,0.31l-0.07,4.77l-0.01,0.37c0,0.19-0.16,0.34-0.34,0.34L5.69,18.11c0,0,0,0,0,0   c-0.09,0-0.18-0.04-0.24-0.1c-0.07-0.07-0.1-0.15-0.1-0.24l0-0.37c0,0,0,0,0,0l0-3.62c0-0.19,0.15-0.34,0.33-0.34l12.44-0.36   c0.09,0,0.17-0.08,0.17-0.18c0-0.09-0.08-0.17-0.18-0.17L5.67,13.08c-0.18,0.01-0.35,0.08-0.47,0.21C5.07,13.42,5,13.59,5,13.77   l0,3.49c-0.52,0.12-0.93,0.25-1.23,0.39c-0.17,0.08-0.31,0.17-0.4,0.26c-0.12,0.11-0.17,0.24-0.17,0.37c0,0.28,0.26,0.51,0.79,0.72   c0.45,0.18,1.08,0.33,1.88,0.47c1.64,0.27,3.81,0.42,6.13,0.42c2.31,0,4.49-0.15,6.13-0.42c0.8-0.13,1.44-0.29,1.88-0.47   c0.53-0.21,0.79-0.44,0.79-0.72C20.8,18.15,20.74,18.02,20.62,17.91z M14.68,11.93c-0.95,0-1.72-0.77-1.72-1.72   c0-0.87,0.65-1.59,1.48-1.71c-0.04,0.12-0.07,0.24-0.08,0.36c-0.05-0.01-0.1-0.03-0.14-0.05c-0.08-0.04-0.19-0.01-0.23,0.08   c-0.04,0.08-0.01,0.19,0.08,0.23c0.15,0.07,0.31,0.11,0.47,0.11c0.03,0,0.07,0,0.1,0c0.2-0.02,0.39-0.09,0.55-0.2   c0.08-0.06,0.09-0.16,0.04-0.24c-0.06-0.08-0.16-0.09-0.24-0.04c-0.08,0.06-0.18,0.1-0.29,0.12c0.02-0.13,0.05-0.26,0.1-0.38   c0.89,0.07,1.59,0.81,1.59,1.72C16.4,11.16,15.63,11.93,14.68,11.93z M19.88,18.68c-0.42,0.17-1.03,0.32-1.81,0.45   c-1.62,0.27-3.78,0.42-6.07,0.42c-2.29,0-4.45-0.15-6.07-0.42C5.15,19,4.54,18.85,4.11,18.68c-0.42-0.17-0.57-0.32-0.57-0.4   c0-0.07,0.1-0.19,0.38-0.32c0.26-0.12,0.62-0.24,1.08-0.35l0,0.15c0,0.18,0.07,0.36,0.2,0.49c0,0,0,0,0,0l0,0   c0.13,0.13,0.3,0.2,0.48,0.2c0,0,0,0,0,0l12.55-0.02c0.18,0,0.35-0.07,0.48-0.2c0.13-0.13,0.2-0.3,0.2-0.48l0-0.16   c0.48,0.11,0.86,0.23,1.13,0.36c0.29,0.14,0.4,0.26,0.4,0.33C20.45,18.36,20.31,18.52,19.88,18.68z"/><path d="M8.11,10.02c0.02,0.62,0.33,1.21,0.81,1.6c0.03,0.02,0.07,0.04,0.11,0.04c0.05,0,0.1-0.02,0.13-0.06   c0.06-0.07,0.05-0.18-0.03-0.24c-0.41-0.32-0.66-0.82-0.68-1.34c0-0.09-0.08-0.17-0.18-0.16C8.18,9.85,8.11,9.93,8.11,10.02z"/><path d="M9.81,12.11c0.02,0.01,0.04,0.01,0.06,0.01c0.07,0,0.14-0.04,0.16-0.11c0.03-0.09-0.02-0.19-0.1-0.22   c-0.13-0.05-0.25-0.11-0.37-0.18c-0.08-0.05-0.18-0.03-0.24,0.05c-0.05,0.08-0.03,0.18,0.05,0.24C9.51,11.98,9.66,12.06,9.81,12.11   z"/></g></svg>